<svg width="60" height="80" viewBox="0 0 60 80" fill="none" xmlns="http://www.w3.org/2000/svg">
<path fill-rule="evenodd" clip-rule="evenodd" d="M49.9997 59.9981V66.6662H46.6669V69.999H43.3315V80H39.9987V76.6672H36.6659V80H33.3331V73.3318H36.6659V69.999H39.9987V63.3334H36.6659V53.3325H30.0003V63.3334H9.9984V59.9981H6.6656V56.6653H11.6661V53.3325H14.9989V56.6653H19.9994V46.6669H33.3331V43.3315H30.0003V39.9987H19.9994V43.3315H16.6666V39.9987H13.3312V43.3315H6.6656V46.6669H3.3328V43.3315H0V36.6659H3.3328V33.3331H6.6656V36.6659H9.9984V33.3331H16.6666V30.0003H13.3312V26.665H9.9984V23.3322H3.3328V19.9994H6.6656V13.3338H3.3328V9.9984H9.9984V6.6656H13.3312V9.9984H16.6666V13.3338H13.3312V16.6666H16.6666V19.9994H19.9994V23.3322H23.3322V19.9994H26.665V16.6666H33.3331V13.3338H26.665V9.9984H30.0003V6.6656H39.9987V9.9984H43.3315V6.6656H46.6669V3.3328H49.9997V19.9994H46.6669V16.6666H43.3315V19.9994H46.6669V23.3322H43.3315V26.665H39.9987V30.0003H43.3315V33.3331H39.9987V43.3315H43.3315V46.6669H46.6669V49.9997H49.9997V46.6669H46.6669V39.9987H49.9997V36.6659H53.3325V39.9987H56.6653V43.3315H53.3325V49.9997H56.6653V53.3325H59.9981V56.6653H53.3325V59.9981H49.9997V56.6653H46.6669V53.3325H43.3315V59.9981H49.9997ZM39.9987 3.3328H30.0003V0H39.9987V3.3328ZM19.9994 13.3312H23.3322V16.664H19.9994V13.3312ZM43.3341 39.9987L43.3315 33.3331H46.6643V39.9987H43.3341ZM46.6669 33.3306V23.3322H49.9997V33.3306H46.6669ZM56.6653 39.9987V33.3331H59.9981V39.9987H56.6653ZM53.3325 33.3306V23.3322H56.6653V33.3331L53.3325 33.3306ZM56.6678 19.9994H60.0006V23.3322H56.6653L56.6678 19.9994ZM56.6653 6.6656H59.9981V16.6666H56.6653L56.6678 19.9994H53.3325V3.3328H56.6653V6.6656ZM49.9997 19.9994H53.3325V23.3322H49.9997V19.9994ZM36.6659 66.6662V69.999H33.3331V66.6662H36.6659ZM9.9984 63.336V66.6688H6.6656V63.336H9.9984Z" fill="white"/>
</svg>
