<svg width="16" height="16" viewBox="0 0 16 16" fill="none" xmlns="http://www.w3.org/2000/svg">
<path d="M3.57847 13.133C2.58657 13.133 1.74232 12.7868 1.04571 12.0945C0.348569 11.4032 0 10.561 0 9.56806C0 8.65674 0.311459 7.84801 0.934377 7.14186C1.5573 6.43571 2.33157 6.05639 3.2572 6.00391C3.43586 4.84554 3.96865 3.88864 4.85558 3.13318C5.74251 2.37773 6.7747 2 7.95215 2C9.27857 2 10.4054 2.46361 11.3326 3.39083C12.2598 4.31805 12.7234 5.44487 12.7234 6.77129V7.5665H13.2133C13.9746 7.59089 14.6134 7.87054 15.1298 8.40546C15.6461 8.94037 15.9043 9.58847 15.9043 10.3498C15.9043 11.1296 15.6355 11.7886 15.0979 12.3267C14.5593 12.8642 13.9004 13.133 13.121 13.133H3.57847ZM3.57847 12.3378H13.121C13.6777 12.3378 14.1482 12.1456 14.5326 11.7613C14.9169 11.3769 15.1091 10.9064 15.1091 10.3498C15.1091 9.79311 14.9169 9.3226 14.5326 8.93825C14.1482 8.5539 13.6777 8.36172 13.121 8.36172H11.9282V6.77129C11.9282 5.67124 11.5404 4.73342 10.7648 3.95782C9.98922 3.18222 9.05167 2.79468 7.95215 2.79521C6.85263 2.79574 5.91507 3.18354 5.13947 3.95861C4.36387 4.73368 3.97607 5.67124 3.97607 6.77129H3.57847C2.80976 6.77129 2.15371 7.04299 1.61031 7.58638C1.06691 8.12978 0.795215 8.78583 0.795215 9.55454C0.795215 10.3232 1.06691 10.9793 1.61031 11.5227C2.15371 12.0661 2.80976 12.3378 3.57847 12.3378Z" fill="black"/>
</svg>
