<svg width="16" height="16" viewBox="0 0 16 16" fill="none" xmlns="http://www.w3.org/2000/svg">
<path d="M8 8.472L10.164 10.636C10.2262 10.6982 10.3027 10.7316 10.3933 10.736C10.484 10.7404 10.5649 10.7071 10.636 10.636C10.7071 10.5649 10.7427 10.4862 10.7427 10.4C10.7427 10.3138 10.7071 10.2351 10.636 10.164L8.472 8L10.636 5.836C10.6982 5.77378 10.7316 5.69733 10.736 5.60667C10.7404 5.516 10.7071 5.43511 10.636 5.364C10.5649 5.29289 10.4862 5.25733 10.4 5.25733C10.3138 5.25733 10.2351 5.29289 10.164 5.364L8 7.528L5.836 5.364C5.77378 5.30178 5.69733 5.26844 5.60667 5.264C5.516 5.25956 5.43511 5.29289 5.364 5.364C5.29289 5.43511 5.25733 5.51378 5.25733 5.6C5.25733 5.68622 5.29289 5.76489 5.364 5.836L7.528 8L5.364 10.164C5.30178 10.2262 5.26844 10.3029 5.264 10.394C5.25956 10.4842 5.29289 10.5649 5.364 10.636C5.43511 10.7071 5.51378 10.7427 5.6 10.7427C5.68622 10.7427 5.76489 10.7071 5.836 10.636L8 8.472ZM8.002 14C7.17222 14 6.39222 13.8427 5.662 13.528C4.93178 13.2129 4.29644 12.7853 3.756 12.2453C3.21556 11.7053 2.78778 11.0707 2.47267 10.3413C2.15756 9.612 2 8.83222 2 8.002C2 7.17178 2.15756 6.39178 2.47267 5.662C2.78733 4.93178 3.21422 4.29644 3.75333 3.756C4.29244 3.21556 4.92733 2.78778 5.658 2.47267C6.38867 2.15756 7.16867 2 7.998 2C8.82733 2 9.60733 2.15756 10.338 2.47267C11.0682 2.78733 11.7036 3.21444 12.244 3.754C12.7844 4.29356 13.2122 4.92844 13.5273 5.65867C13.8424 6.38889 14 7.16867 14 7.998C14 8.82733 13.8427 9.60733 13.528 10.338C13.2133 11.0687 12.7858 11.704 12.2453 12.244C11.7049 12.784 11.0702 13.2118 10.3413 13.5273C9.61244 13.8429 8.83267 14.0004 8.002 14ZM8 13.3333C9.48889 13.3333 10.75 12.8167 11.7833 11.7833C12.8167 10.75 13.3333 9.48889 13.3333 8C13.3333 6.51111 12.8167 5.25 11.7833 4.21667C10.75 3.18333 9.48889 2.66667 8 2.66667C6.51111 2.66667 5.25 3.18333 4.21667 4.21667C3.18333 5.25 2.66667 6.51111 2.66667 8C2.66667 9.48889 3.18333 10.75 4.21667 11.7833C5.25 12.8167 6.51111 13.3333 8 13.3333Z" fill="currentColor"/>
</svg>
