<svg width="30" height="20" viewBox="0 0 30 20" fill="none" xmlns="http://www.w3.org/2000/svg">
<path d="M0 0.000175526H30V20.0004H0V0.000175526Z" fill="white"/>
<path d="M16.875 1.07102e-08H13.125V8.12497H0V11.875H13.125V19.9999H16.875V11.875H30V8.12497H16.875V1.07102e-08Z" fill="#D80027"/>
<path d="M23.0733 13.4782L30 17.3264V13.4782H23.0733ZM18.2609 13.4782L30 20.0004L30 18.1558L21.5805 13.4782H18.2609ZM26.8731 19.9999L18.2609 15.2149V19.9999H26.8731Z" fill="#0052B4"/>
<path d="M18.2609 13.4782L30 20.0004L30 18.1558L21.5805 13.4782H18.2609Z" fill="white"/>
<path d="M18.2609 13.4782L30 20.0004L30 18.1558L21.5805 13.4782H18.2609Z" fill="#D80027"/>
<path d="M5.29342 13.4781L0 16.4189V13.4781H5.29342ZM11.7391 14.3074V19.9999H1.49361L11.7391 14.3074Z" fill="#0052B4"/>
<path d="M8.41951 13.4782L0 18.1558V20.0004L11.7391 13.4782H8.41951Z" fill="#D80027"/>
<path d="M6.92666 6.52173L0 2.67352V6.52173H6.92666ZM11.7391 6.52173L0 0.000175526V1.84418L8.41951 6.52173H11.7391ZM3.12691 0L11.7391 4.785V0H3.12691Z" fill="#0052B4"/>
<path d="M11.7391 6.52173L0 0.000175526V1.84418L8.41951 6.52173H11.7391Z" fill="white"/>
<path d="M11.7391 6.52173L0 0.000175526V1.84418L8.41951 6.52173H11.7391Z" fill="#D80027"/>
<path d="M24.7066 6.52184L30 3.58102V6.52184H24.7066ZM18.2609 5.69251V5.82192e-05H28.5064L18.2609 5.69251Z" fill="#0052B4"/>
<path d="M21.5805 6.52172L30 1.84418L30 0.000175526L18.2609 6.52172H21.5805Z" fill="#D80027"/>
</svg>
