<svg width="16" height="16" viewBox="0 0 16 16" fill="none" xmlns="http://www.w3.org/2000/svg">
<path d="M2.71429 13.2857H5.28571V9C5.28571 8.75714 5.368 8.55371 5.53257 8.38971C5.69714 8.22571 5.90057 8.14343 6.14286 8.14286H9.57143C9.81428 8.14286 10.018 8.22514 10.1826 8.38971C10.3471 8.55428 10.4291 8.75771 10.4286 9V13.2857H13V5.57143L7.85714 1.71429L2.71429 5.57143V13.2857ZM1 13.2857V5.57143C1 5.3 1.06086 5.04286 1.18257 4.8C1.30429 4.55714 1.472 4.35714 1.68571 4.2L6.82857 0.342857C7.12857 0.114286 7.47143 0 7.85714 0C8.24286 0 8.58571 0.114286 8.88571 0.342857L14.0286 4.2C14.2429 4.35714 14.4109 4.55714 14.5326 4.8C14.6543 5.04286 14.7149 5.3 14.7143 5.57143V13.2857C14.7143 13.7571 14.5463 14.1609 14.2103 14.4969C13.8743 14.8329 13.4709 15.0006 13 15H9.57143C9.32857 15 9.12514 14.9177 8.96114 14.7531C8.79714 14.5886 8.71486 14.3851 8.71428 14.1429V9.85714H7V14.1429C7 14.3857 6.91771 14.5894 6.75314 14.754C6.58857 14.9186 6.38514 15.0006 6.14286 15H2.71429C2.24286 15 1.83943 14.8323 1.504 14.4969C1.16857 14.1614 1.00057 13.7577 1 13.2857Z" fill="currentColor"/>
</svg>
