<svg width="16" height="16" viewBox="0 0 16 16" fill="none" xmlns="http://www.w3.org/2000/svg">
<path d="M6.11466 9.8863L9.88599 6.11496M4.69999 7.52896L3.75733 8.47163C3.5097 8.71926 3.31327 9.01324 3.17925 9.33678C3.04523 9.66033 2.97626 10.0071 2.97626 10.3573C2.97626 10.7075 3.04523 11.0543 3.17925 11.3778C3.31327 11.7014 3.5097 11.9953 3.75733 12.243C4.00496 12.4906 4.29893 12.687 4.62248 12.821C4.94602 12.9551 5.29279 13.024 5.64299 13.024C5.99319 13.024 6.33997 12.9551 6.66351 12.821C6.98705 12.687 7.28103 12.4906 7.52866 12.243L8.46999 11.3003M7.52799 4.7003L8.47066 3.75763C8.71829 3.51 9.01227 3.31357 9.33581 3.17956C9.65935 3.04554 10.0061 2.97656 10.3563 2.97656C10.7065 2.97656 11.0533 3.04554 11.3768 3.17956C11.7004 3.31357 11.9944 3.51 12.242 3.75763C12.4896 4.00526 12.6861 4.29924 12.8201 4.62278C12.9541 4.94633 13.0231 5.2931 13.0231 5.6433C13.0231 5.9935 12.9541 6.34027 12.8201 6.66381C12.6861 6.98736 12.4896 7.28134 12.242 7.52896L11.2993 8.47163" stroke="currentColor" stroke-width="1.33333" stroke-linecap="round" stroke-linejoin="round"/>
</svg>
