<svg width="107" height="63" viewBox="0 0 107 63" fill="none" xmlns="http://www.w3.org/2000/svg">
<g clip-path="url(#clip0_3441_14106)">
<path d="M38.2376 5.38623H35.4686V14.4868H38.2376C40.8895 14.4868 42.3846 13.1606 42.3846 9.93652C42.3846 6.7124 40.8895 5.38623 38.2376 5.38623ZM38.2376 13.2905H36.8202V6.58252H38.2376C40.0316 6.58252 40.9417 7.38867 40.9417 9.93652C40.9417 12.4849 40.0316 13.2905 38.2376 13.2905Z" fill="white"/>
<path d="M45.2962 5.33447H43.7879V6.84229H45.2962V5.33447Z" fill="white"/>
<path d="M45.1922 7.80469H43.8924V14.4868H45.1922V7.80469Z" fill="white"/>
<path d="M49.1312 14.3569C49.9242 14.3569 50.6131 13.98 51.0423 13.2646V14.2139C51.0423 15.5659 50.4832 16.1641 49.4173 16.1641C48.6629 16.1641 48.117 15.7349 48.0521 14.9546H46.7259C46.8822 16.437 47.8831 17.2168 49.4173 17.2168C51.1331 17.2168 52.3421 16.1899 52.3421 14.1616V7.80469H51.0941V8.67578C50.639 7.99951 49.9764 7.67432 49.2352 7.67432C47.6883 7.67432 46.596 8.75342 46.596 11.0156C46.596 13.2778 47.558 14.3569 49.1312 14.3569ZM49.495 8.7666C50.5482 8.7666 51.0423 9.49463 51.0423 11.0156C51.0423 12.5366 50.5482 13.2646 49.495 13.2646C48.4422 13.2646 47.9481 12.5366 47.9481 11.0156C47.9481 9.49463 48.4422 8.7666 49.495 8.7666Z" fill="white"/>
<path d="M55.41 7.80469H54.1102V14.4868H55.41V7.80469Z" fill="white"/>
<path d="M55.514 5.33447H54.0057V6.84229H55.514V5.33447Z" fill="white"/>
<path d="M57.9579 12.4067C57.9579 13.7197 58.452 14.5776 60.0379 14.5776C60.3241 14.5776 60.6488 14.5518 61.0262 14.4868V13.3818C60.701 13.4336 60.4408 13.46 60.2201 13.46C59.5047 13.46 59.2577 13.1606 59.2577 12.4067V8.90967H61.0262V7.80469H59.2577V5.64648L57.9579 5.90674V7.80469H56.5799V8.90967H57.9579V12.4067Z" fill="white"/>
<path d="M65.0428 7.67432C63.5736 7.67432 62.4427 8.61084 62.3778 10.0669H63.7039C63.7557 9.16943 64.2889 8.72754 65.0296 8.72754C65.8358 8.72754 66.4081 9.16943 66.4081 10.2227V10.5215L64.575 10.6387C63.0926 10.7427 62.1698 11.5098 62.1698 12.6929C62.1698 13.811 62.9886 14.6167 64.2367 14.6167C65.0428 14.6167 65.9007 14.292 66.4598 13.4858V14.4868H67.7079V10.2749C67.7079 8.61084 66.6678 7.67432 65.0428 7.67432ZM66.4081 11.7178C66.4081 13.0957 65.368 13.564 64.5096 13.564C63.912 13.564 63.4696 13.2129 63.4696 12.6538C63.4696 12.0688 63.8729 11.6655 64.7176 11.6138L66.4081 11.4839V11.7178Z" fill="white"/>
<path d="M66.8499 4.8667H65.3939L64.2757 7.07666H65.4198L66.8499 4.8667Z" fill="white"/>
<path d="M70.7757 4.73633L69.4754 4.99658V14.4868H70.7757V4.73633Z" fill="white"/>
<path d="M73.8436 10.2749C73.8436 9.27344 74.4935 8.77979 75.3128 8.77979C76.1834 8.77979 76.7816 9.26074 76.7816 10.5088V14.4868H78.0819V10.3784C78.0819 8.50635 77.0809 7.67432 75.6766 7.67432C74.8705 7.67432 74.2206 8.02539 73.7918 8.67578V7.80469H72.5438V14.4868H73.8436V10.2749Z" fill="white"/>
<path d="M82.307 4.8667H80.8509L79.7328 7.07666H80.8768L82.307 4.8667Z" fill="white"/>
<path d="M81.1497 7.80469H79.8495V14.4868H81.1497V7.80469Z" fill="white"/>
<path d="M38.0164 22.1743C36.5472 22.1743 35.4164 23.1108 35.3514 24.5669H36.6776C36.7293 23.6694 37.2625 23.2275 38.0033 23.2275C38.8094 23.2275 39.3817 23.6694 39.3817 24.7227V25.0215L37.5487 25.1387C36.0663 25.2427 35.1434 26.0098 35.1434 27.1929C35.1434 28.311 35.9622 29.1167 37.2103 29.1167C38.0164 29.1167 38.8744 28.792 39.4334 27.9858V28.9868H40.6815V24.7749C40.6815 23.1108 39.6414 22.1743 38.0164 22.1743ZM39.3817 26.2178C39.3817 27.5957 38.3416 28.064 37.4832 28.064C36.8856 28.064 36.4432 27.7129 36.4432 27.1538C36.4432 26.5688 36.8465 26.1655 37.6913 26.1138L39.3817 25.9839V26.2178Z" fill="white"/>
<path d="M47.2464 22.3047H45.9461V28.9868H47.2464V22.3047Z" fill="white"/>
<path d="M47.3504 19.8345H45.8426V21.3423H47.3504V19.8345Z" fill="white"/>
<path d="M50.3143 24.7749C50.3143 23.7734 50.9642 23.2798 51.7835 23.2798C52.6541 23.2798 53.2523 23.7607 53.2523 25.0088V28.9868H54.5526V24.8784C54.5526 23.0063 53.5516 22.1743 52.1473 22.1743C51.3412 22.1743 50.6913 22.5254 50.2625 23.1758V22.3047H49.0145V28.9868H50.3143V24.7749Z" fill="white"/>
<path d="M56.8665 28.9868H58.1668V23.4097H60.0389V22.3047H58.1668V21.4468C58.1668 20.6924 58.4134 20.3936 59.1805 20.3936C59.4149 20.3936 59.6878 20.4194 60.0389 20.4717V19.3667C59.6488 19.3013 59.3236 19.2754 59.0116 19.2754C57.3607 19.2754 56.8665 20.1333 56.8665 21.4468V22.3047H55.4886V23.4097H56.8665V28.9868Z" fill="white"/>
<path d="M63.4837 29.1167C65.3558 29.1167 66.3831 28.0117 66.3831 25.6455C66.3831 23.2798 65.3558 22.1743 63.4837 22.1743C61.6117 22.1743 60.5848 23.2798 60.5848 25.6455C60.5848 28.0117 61.6117 29.1167 63.4837 29.1167ZM63.4837 23.2534C64.537 23.2534 65.0311 23.9814 65.0311 25.6455C65.0311 27.3096 64.537 28.0376 63.4837 28.0376C62.431 28.0376 61.9369 27.3096 61.9369 25.6455C61.9369 23.9814 62.431 23.2534 63.4837 23.2534Z" fill="white"/>
<path d="M69.0868 24.9829C69.0868 24.1245 69.5418 23.4097 70.764 23.4097H71.4657V22.3047C71.2708 22.2656 71.0628 22.2397 70.868 22.2397C70.1009 22.2397 69.4637 22.5645 69.035 23.2275V22.3047H67.787V28.9868H69.0868V24.9829Z" fill="white"/>
<path d="M81.4237 28.9868V24.6445C81.4237 22.9028 80.4486 22.1743 79.2655 22.1743C78.4725 22.1743 77.8226 22.5776 77.4198 23.2798C77.0555 22.5127 76.3407 22.1743 75.5477 22.1743C74.8714 22.1743 74.2865 22.5127 73.8836 23.1367V22.3047H72.6356V28.9868H73.9354V24.6318C73.9354 23.6567 74.5726 23.2798 75.1576 23.2798C75.7943 23.2798 76.3797 23.6436 76.3797 24.7617V28.9868H77.6795V24.5278C77.6795 23.6567 78.3167 23.2798 78.9017 23.2798C79.5384 23.2798 80.1239 23.6436 80.1239 24.7617V28.9868H81.4237Z" fill="white"/>
<path d="M85.7396 22.1743C84.2704 22.1743 83.1395 23.1108 83.0746 24.5669H84.4007C84.4525 23.6694 84.9857 23.2275 85.7264 23.2275C86.5326 23.2275 87.1048 23.6694 87.1048 24.7227V25.0215L85.2713 25.1387C83.7894 25.2427 82.8665 26.0098 82.8665 27.1929C82.8665 28.311 83.6854 29.1167 84.9334 29.1167C85.7396 29.1167 86.5975 28.792 87.1566 27.9858V28.9868H88.4046V24.7749C88.4046 23.1108 87.3646 22.1743 85.7396 22.1743ZM87.1048 26.2178C87.1048 27.5957 86.0648 28.064 85.2064 28.064C84.6087 28.064 84.1664 27.7129 84.1664 27.1538C84.1664 26.5688 84.5697 26.1655 85.4144 26.1138L87.1048 25.9839V26.2178Z" fill="white"/>
<path d="M93.5008 21.5767L94.9046 19.3667H93.7865L92.7206 20.7837L91.6546 19.3667H90.5106L91.9144 21.5767H93.5008Z" fill="white"/>
<path d="M92.7074 23.2534C93.4745 23.2534 94.0077 23.7085 94.1248 24.6968H95.4764C95.2816 22.9678 94.2806 22.1743 92.7074 22.1743C90.8353 22.1743 89.8084 23.2798 89.8084 25.6455C89.8084 28.0117 90.8353 29.1167 92.7074 29.1167C94.2284 29.1167 95.2816 28.3237 95.4764 26.5947H94.1248C94.0077 27.5825 93.4745 28.0376 92.7074 28.0376C91.6546 28.0376 91.1605 27.3096 91.1605 25.6455C91.1605 23.9814 91.6546 23.2534 92.7074 23.2534Z" fill="white"/>
<path d="M100.014 22.1743C99.2074 22.1743 98.5575 22.5254 98.1288 23.1758V22.3047H96.8807V28.9868H98.1805V24.7749C98.1805 23.7734 98.8304 23.2798 99.6497 23.2798C100.52 23.2798 101.118 23.7607 101.118 25.0088V28.9868H102.419V24.8784C102.419 23.0063 101.418 22.1743 100.014 22.1743Z" fill="white"/>
<path d="M106.644 19.3667H105.188L104.07 21.5767H105.214L106.644 19.3667Z" fill="white"/>
<path d="M105.487 22.3047H104.186V28.9868H105.487V22.3047Z" fill="white"/>
<path d="M38.0164 36.6743C36.5472 36.6743 35.4164 37.6108 35.3514 39.0669H36.6776C36.7293 38.1694 37.2625 37.7275 38.0033 37.7275C38.8094 37.7275 39.3817 38.1694 39.3817 39.2227V39.5215L37.5487 39.6387C36.0663 39.7427 35.1434 40.5098 35.1434 41.6929C35.1434 42.811 35.9622 43.6167 37.2103 43.6167C38.0164 43.6167 38.8744 43.292 39.4334 42.4858V43.4868H40.6815V39.2749C40.6815 37.6108 39.6414 36.6743 38.0164 36.6743ZM39.3817 40.7178C39.3817 42.0957 38.3416 42.564 37.4832 42.564C36.8856 42.564 36.4432 42.2129 36.4432 41.6538C36.4432 41.0688 36.8465 40.6655 37.6913 40.6138L39.3817 40.4839V40.7178Z" fill="white"/>
<path d="M46.5833 37.6758C46.1283 36.9995 45.4657 36.6743 44.7245 36.6743C43.1776 36.6743 42.0853 37.7534 42.0853 40.0156C42.0853 42.2778 43.0472 43.3569 44.6205 43.3569C45.4134 43.3569 46.1024 42.98 46.5316 42.2646V43.2139C46.5316 44.5659 45.9725 45.1641 44.9066 45.1641C44.1522 45.1641 43.6063 44.7349 43.5414 43.9546H42.2152C42.3714 45.437 43.3724 46.2168 44.9066 46.2168C46.6224 46.2168 47.8314 45.1899 47.8314 43.1616V36.8047H46.5833V37.6758ZM44.9842 42.2646C43.9315 42.2646 43.4373 41.5366 43.4373 40.0156C43.4373 38.4946 43.9315 37.7666 44.9842 37.7666C46.0374 37.7666 46.5316 38.4946 46.5316 40.0156C46.5316 41.5366 46.0374 42.2646 44.9842 42.2646Z" fill="white"/>
<path d="M52.1214 36.6743C50.2621 36.6743 49.2352 37.7798 49.2352 40.1455C49.2352 42.5117 50.2621 43.6167 52.1214 43.6167C53.6165 43.6167 54.6693 42.811 54.8255 41.4326H53.4735C53.4085 42.1216 52.8885 42.564 52.1214 42.564C51.1331 42.564 50.6131 41.9526 50.5741 40.4966H54.8905C54.9032 40.4058 54.9032 40.3276 54.9032 40.2495C54.9032 37.7798 53.8763 36.6743 52.1214 36.6743ZM50.5872 39.4956C50.6913 38.2607 51.1981 37.7275 52.1214 37.7275C52.9403 37.7275 53.4471 38.2607 53.5516 39.4956H50.5872Z" fill="white"/>
<path d="M59.4403 36.6743C58.6341 36.6743 57.9842 37.0254 57.5555 37.6758V36.8047H56.3075V43.4868H57.6073V39.2749C57.6073 38.2734 58.2572 37.7798 59.0765 37.7798C59.9471 37.7798 60.5453 38.2607 60.5453 39.5088V43.4868H61.8456V39.3784C61.8456 37.5063 60.8446 36.6743 59.4403 36.6743Z" fill="white"/>
<path d="M65.4598 34.6465L64.1595 34.9067V36.8047H62.7816V37.9097H64.1595V41.4067C64.1595 42.7197 64.6537 43.5776 66.2396 43.5776C66.5257 43.5776 66.8504 43.5518 67.2274 43.4868V42.3818C66.9027 42.4336 66.6424 42.46 66.4217 42.46C65.7064 42.46 65.4598 42.1606 65.4598 41.4067V37.9097H67.2274V36.8047H65.4598V34.6465Z" fill="white"/>
<path d="M72.9994 40.8345C72.9994 42.0439 72.4276 42.5376 71.5306 42.5376C70.6336 42.5376 70.0614 42.0439 70.0614 40.8345V36.8047H68.7616V40.8345C68.7616 42.6938 69.8534 43.6167 71.5306 43.6167C73.2074 43.6167 74.2997 42.6938 74.2997 40.8345V36.8047H72.9994V40.8345Z" fill="white"/>
<path d="M77.3153 37.7275V36.8047H76.0672V43.4868H77.3675V39.4829C77.3675 38.6245 77.8226 37.9097 79.0448 37.9097H79.7464V36.8047C79.5516 36.7656 79.3436 36.7397 79.1488 36.7397C78.3817 36.7397 77.7445 37.0645 77.3153 37.7275Z" fill="white"/>
<path d="M83.2044 36.6743C81.7352 36.6743 80.6043 37.6108 80.5394 39.0669H81.8656C81.9173 38.1694 82.4505 37.7275 83.1913 37.7275C83.9974 37.7275 84.5697 38.1694 84.5697 39.2227V39.5215L82.7362 39.6387C81.2542 39.7427 80.3314 40.5098 80.3314 41.6929C80.3314 42.811 81.1502 43.6167 82.3983 43.6167C83.2044 43.6167 84.0623 43.292 84.6214 42.4858V43.4868H85.8695V39.2749C85.8695 37.6108 84.8294 36.6743 83.2044 36.6743ZM84.5697 40.7178C84.5697 42.0957 83.5296 42.564 82.6712 42.564C82.0736 42.564 81.6312 42.2129 81.6312 41.6538C81.6312 41.0688 82.0345 40.6655 82.8792 40.6138L84.5697 40.4839V40.7178Z" fill="white"/>
<path d="M28.063 0H0V62.363H28.063V0Z" fill="#D70C0F"/>
<path d="M13.7039 20.5712C13.7039 20.5712 13.2809 20.4711 13.1809 20.0731C13.0569 19.6002 13.4049 19.3262 13.4049 19.3262C12.9819 19.0771 12.4589 18.6782 11.9859 18.3052L10.0429 18.6542C8.32489 18.9521 7.8269 20.2471 9.9939 22.9371H7.55292C7.52789 22.3641 7.37891 22.0151 7.22894 21.7662C6.80591 21.0942 6.20795 21.1691 5.66089 21.6422C5.95892 21.8411 6.15894 22.0402 6.35791 22.3392C6.55695 22.6381 6.65692 22.8871 6.68195 22.9871C6.25793 22.6381 5.51093 22.4391 5.21191 22.4642C4.83893 22.4882 4.39093 22.8372 4.39093 23.6091C4.39093 23.6091 4.9129 23.4601 5.53589 23.5591C5.88489 23.6091 6.33295 23.7592 6.33295 23.7592C6.0589 23.8331 5.75989 24.0322 5.56091 24.2322C5.06293 24.7302 5.28693 25.2031 5.88489 25.7261C5.98389 25.3771 6.15894 25.0781 6.55695 24.6802C6.90594 24.3312 7.00494 24.2571 7.15491 24.1821C7.53992 24.2972 7.91589 24.3912 8.27893 24.4672C8.4679 24.9642 8.0509 25.6011 8.0509 25.6011C8.74689 25.7751 9.41791 25.2051 9.44495 24.6581C10.7689 24.8112 11.8599 24.7172 12.5579 24.5062L11.1639 21.3182C11.1639 21.3182 12.8319 21.1691 13.7039 20.5712Z" fill="white"/>
<path d="M6.05902 10.3367L6.82501 11.0826C6.70904 11.5906 6.00903 11.8807 6.00903 11.8807C6.49499 12.4147 7.33502 12.3096 7.677 11.9116L9.81903 13.9966C9.99304 12.9506 10.442 12.4526 11.064 11.9797C9.39599 10.7596 7.20404 9.71362 7.20404 9.71362C7.578 9.29065 7.72699 8.94165 7.802 8.64264C7.97601 7.87067 7.50299 7.49768 6.781 7.47266C6.85602 7.82068 6.83099 8.16968 6.781 8.41864C6.73102 8.71765 6.68103 8.89166 6.55701 9.14062C6.50702 8.59265 6.10901 7.92065 5.88501 7.72168C5.61102 7.47266 5.03802 7.42267 4.48999 7.94568C4.48999 7.94568 4.98804 8.24463 5.33703 8.71765C5.53601 8.99164 5.76001 9.43964 5.76001 9.43964C5.51098 9.29065 5.16199 9.21564 4.888 9.21564C4.16601 9.21564 3.992 9.71362 4.04199 10.5106C4.36603 10.3367 4.73901 10.2366 5.26202 10.2366C5.586 10.2366 5.83502 10.2617 6.05902 10.3367Z" fill="white"/>
<path d="M25.0594 15.6154H24.0724C24.0824 15.4673 24.0884 15.3184 24.0884 15.1674C24.0884 13.6484 23.5404 12.5774 22.8434 11.7303C22.8434 11.7303 22.3204 12.1294 22.1214 12.3784C22.6934 13.1003 23.1174 13.9714 23.1174 15.1924C23.1174 15.3334 23.1114 15.4744 23.1004 15.6154H22.0214C22.0214 15.9134 22.3554 16.4344 22.9344 16.6324C22.6754 17.6694 22.1674 18.6234 21.5734 19.3594C20.7114 18.2914 20.0294 16.7654 20.0294 15.1924C20.0294 13.1003 21.1994 12.0294 22.4444 10.9834C22.5524 10.8924 22.7194 10.7614 22.9124 10.5944C23.2314 10.8834 23.5644 11.2354 23.8394 11.6804C23.8394 11.6804 24.5364 11.3324 24.5364 10.7594C24.5364 10.2253 23.9564 10.1133 23.4134 10.1244C23.9624 9.55835 24.5114 8.78735 24.5114 7.89539C24.5114 6.97437 23.9384 6.40137 23.1424 6.40137C21.9714 6.40137 21.8474 7.6214 21.8474 7.89539C21.8474 7.89539 22.1454 7.6214 22.5194 7.6214C22.8684 7.6214 23.2164 7.87036 23.2164 8.4184C23.2164 9.09137 22.6684 9.56439 21.6724 10.4103C20.5274 11.3824 19.0584 12.7014 19.0584 15.1674C19.0584 15.3184 19.0634 15.4673 19.0744 15.6154H17.9624C17.9624 15.9724 18.4394 16.6454 19.2404 16.7064C19.6794 18.5923 20.7734 19.9594 20.9314 20.1494C20.7694 20.3384 20.3904 20.6703 19.7304 20.6703C19.0804 20.6703 18.4804 20.3553 17.9834 19.6993C17.9854 19.6254 17.9874 19.5514 17.9874 19.4753C17.9874 17.6573 17.3394 15.5654 16.2934 14.3204H18.1114C18.0864 13.2744 17.6634 12.3033 16.6174 11.3574H17.6634C17.6634 9.29034 16.1944 8.56836 16.0694 8.46838C17.0164 8.24438 17.4144 7.49738 17.4144 7.07336H12.8574C12.8574 7.07336 12.3094 7.69635 11.3384 8.09436C11.3384 8.7674 11.8364 9.34039 12.2594 9.63837C12.6584 8.99139 13.1564 8.91638 13.4304 8.91638C13.8534 8.91638 14.2024 9.14038 14.2024 9.53937C14.2024 9.83838 14.0024 10.1364 13.6544 10.1364C13.4054 10.1364 13.1314 9.98737 12.7574 9.98737C11.8364 9.98737 11.9604 10.9084 11.9604 10.9084H13.5294C13.6774 12.0944 10.6894 12.1534 10.6424 14.3914C8.03643 15.0844 6.4074 16.0384 6.4074 16.0384C6.33238 15.4904 6.15843 15.1424 5.9594 14.8934C5.46141 14.2704 4.88841 14.3954 4.41539 14.9184C4.73943 15.0923 4.91338 15.2414 5.1624 15.5403C5.41143 15.8394 5.43639 15.9144 5.56041 16.1634C5.11241 15.8644 4.34038 15.7404 4.04143 15.7894C3.66838 15.8394 3.2694 16.2383 3.31938 16.9854C3.31938 16.9854 3.81743 16.8354 4.31542 16.8354C4.8134 16.8354 5.26238 16.9854 5.26238 16.9854C4.98839 17.0594 4.7144 17.2834 4.53942 17.5084C4.09142 18.0804 4.34038 18.5044 4.98839 18.9774C5.06243 18.6284 5.2874 18.1804 5.56041 17.8564C5.71038 17.6824 5.9594 17.4333 6.13341 17.3334L7.17943 17.1913C7.49242 17.6194 7.27941 18.3293 7.27941 18.3293C7.99138 18.2804 8.46038 17.5533 8.35442 17.0323L11.5064 16.6044C12.5924 17.9724 14.3524 18.9073 14.6754 19.0764L13.7284 22.3394C13.3304 23.7084 13.6044 24.7544 14.6254 24.9534C15.2724 25.0784 16.1444 24.8544 16.1444 24.8544L14.9984 27.1454C14.5004 26.8714 14.1274 26.7714 13.8284 26.7714C13.0314 26.7714 12.7574 27.3194 12.8824 28.0164C13.2304 27.8674 13.4794 27.8174 13.8534 27.8174C14.0774 27.8174 14.3014 27.8174 14.5754 27.8924C14.0524 28.0663 13.4794 28.5894 13.3304 28.8384C13.1314 29.1624 13.2054 29.7354 13.8284 30.1584C13.8284 30.1584 13.9774 29.6603 14.4014 29.1874C14.6504 28.9134 15.0234 28.6144 15.0234 28.6144C14.9244 28.8884 14.9244 29.2614 14.9984 29.5114C15.1734 30.1833 15.5214 30.3074 16.4184 30.0834C16.1944 29.7844 16.0444 29.5353 15.9204 28.9384C15.8454 28.6144 15.8204 28.3654 15.8454 28.1414C16.0584 27.8984 16.3674 27.6164 16.7134 27.3004C17.2224 27.4394 17.4894 28.1414 17.4894 28.1414C18.0184 27.6844 17.9664 26.8564 17.5814 26.4864C18.4784 25.5974 19.3314 24.5323 19.3314 23.3604H16.5924C16.5924 23.3604 17.4734 22.5734 17.8344 20.9264C18.3234 21.3854 19.0604 21.6414 19.6804 21.6414C20.3034 21.6414 20.9254 21.3434 21.2744 21.0193V22.8124C22.0714 22.8124 22.7434 21.7164 22.1704 20.7704C23.4654 21.4924 24.3124 20.5714 24.3124 20.0234H22.3154C22.6384 19.6053 23.5274 18.3474 23.9094 16.6913C24.6334 16.5734 25.0594 15.9524 25.0594 15.6154ZM13.6294 8.34436C13.3304 8.34436 13.1064 8.11938 13.1064 7.64636H14.3764C14.3764 7.99536 13.9774 8.34436 13.6294 8.34436Z" fill="white"/>
<path d="M10.9149 10.2863H11.7619C11.7619 9.76331 11.2389 9.71332 10.7659 9.53931C10.3669 9.39032 10.0189 9.11633 10.0189 8.41833C10.0189 8.11932 10.0929 7.6463 10.5169 7.29834C9.76892 7.29834 8.9729 7.79633 8.9729 8.71735C8.9729 9.46436 9.49591 10.2863 10.9149 10.2863Z" fill="white"/>
<path d="M14.6253 6.25208H16.6423L18.0863 3.5871C17.5883 3.21405 16.4933 3.33807 16.4933 4.18506C16.4933 4.48407 16.6173 4.68305 16.6173 4.93207C16.6173 5.33106 16.2933 5.45508 15.9203 5.45508C15.1733 5.45508 14.8993 4.90705 14.8993 4.45905L15.1233 4.60809C15.4973 4.85706 15.9453 4.55908 15.9453 4.1601C15.9453 3.81207 15.6213 3.5871 15.3223 3.63708L14.9993 3.68707L15.1483 3.3631C15.3723 2.89008 15.0233 2.61609 14.6253 2.39209C14.2273 2.61609 13.8783 2.89008 14.1023 3.3631L14.2513 3.68707L13.9283 3.63708C13.6293 3.5871 13.3053 3.81207 13.3053 4.1601C13.3053 4.55908 13.7533 4.85706 14.1273 4.60809L14.3513 4.45905C14.3513 4.90705 14.0773 5.45508 13.3303 5.45508C12.9573 5.45508 12.6333 5.33106 12.6333 4.93207C12.6333 4.68305 12.7573 4.48407 12.7573 4.18506C12.7573 3.33807 11.6623 3.21405 11.1643 3.5871L12.6083 6.25208H14.6253Z" fill="white"/>
<path d="M18.6097 10.7593C18.6097 11.3323 19.3067 11.6804 19.3067 11.6804C19.5807 11.2324 20.4527 10.3364 20.9507 9.96234C20.2777 9.38934 19.9297 8.96637 19.9297 8.41833C19.9297 7.87036 20.2777 7.62134 20.6267 7.62134C21.0007 7.62134 21.2987 7.89532 21.2987 7.89532C21.2987 7.62134 21.1747 6.40137 20.0047 6.40137C19.2077 6.40137 18.6347 6.97437 18.6347 7.89532C18.6347 8.79236 19.1827 9.56433 19.7307 10.1364C19.1827 10.1124 18.6097 10.2363 18.6097 10.7593Z" fill="white"/>
</g>
<defs>
<clipPath id="clip0_3441_14106">
<rect width="106.644" height="62.363" fill="white"/>
</clipPath>
</defs>
</svg>
