<svg width="16" height="16" viewBox="0 0 16 16" fill="none" xmlns="http://www.w3.org/2000/svg">
<g clip-path="url(#clip0_2692_2)">
<path d="M7.27574 8.72385C7.14833 8.59667 6.99649 8.49661 6.82937 8.4297L1.5427 6.3097C1.47958 6.28437 1.42571 6.24034 1.38834 6.18351C1.35096 6.12669 1.33186 6.05979 1.33361 5.9918C1.33535 5.92381 1.35785 5.85798 1.39808 5.80314C1.43832 5.74831 1.49436 5.70709 1.5587 5.68503L14.2254 1.3517C14.2844 1.33036 14.3484 1.32629 14.4097 1.33996C14.471 1.35363 14.5271 1.38447 14.5715 1.42888C14.6159 1.47329 14.6468 1.52943 14.6604 1.59073C14.6741 1.65203 14.67 1.71596 14.6487 1.77503L10.3154 14.4417C10.2933 14.506 10.2521 14.5621 10.1973 14.6023C10.1424 14.6426 10.0766 14.665 10.0086 14.6668C9.9406 14.6685 9.87371 14.6494 9.81688 14.6121C9.76006 14.5747 9.71603 14.5208 9.6907 14.4577L7.5707 9.1697C7.50349 9.00269 7.40315 8.85103 7.27574 8.72385ZM7.27574 8.72385L14.5694 1.4317" stroke="currentColor" stroke-width="1.33333" stroke-linecap="round" stroke-linejoin="round"/>
</g>
<defs>
<clipPath id="clip0_2692_2">
<rect width="16" height="16" fill="white"/>
</clipPath>
</defs>
</svg>
