<svg width="30" height="20" viewBox="0 0 30 20" fill="none" xmlns="http://www.w3.org/2000/svg">
<path d="M0 0H30V19.9996H0V0Z" fill="white"/>
<path d="M0 6.52173H30V13.4778H0V6.52173Z" fill="#0052B4"/>
<path d="M0 13.4778H30V19.9996H0V13.4778Z" fill="#D80027"/>
<path d="M7.58602 5.65208V10.6405C7.58602 13.4782 11.2931 14.3476 11.2931 14.3476C11.2931 14.3476 15 13.478 15 10.6405V5.65208H7.58602Z" fill="white"/>
<path d="M8.56207 5.79827V10.5995C8.56207 10.9201 8.63326 11.2229 8.77435 11.5068H13.8117C13.9528 11.223 14.0239 10.9202 14.0239 10.5995V5.79827H8.56207Z" fill="#D80027"/>
<path d="M12.9669 9.14591H11.7115V8.30901H12.5484V7.47212H11.7115V6.63516H10.8746V7.47212H10.0378V8.30901H10.8746V9.14591H9.61916V9.98286H10.8746V10.8198H11.7115V9.98286H12.9669V9.14591Z" fill="white"/>
<path d="M9.91594 12.6751C10.4552 13.0139 11.0093 13.2108 11.293 13.2983C11.5767 13.2107 12.1308 13.014 12.6701 12.6751C13.2139 12.3333 13.5952 11.9424 13.8117 11.5068C13.5648 11.3318 13.2696 11.2379 12.9669 11.2382C12.8523 11.2382 12.741 11.2518 12.634 11.2767C12.4072 10.7613 11.8923 10.4013 11.2931 10.4013C10.6939 10.4013 10.1791 10.7613 9.95227 11.2767C9.84312 11.2512 9.73142 11.2383 9.61934 11.2382C9.31669 11.2379 9.02125 11.3318 8.77435 11.5068C8.99062 11.9424 9.37207 12.3333 9.91594 12.6751Z" fill="#0052B4"/>
</svg>
